Coordinates
version=1
nRows=24
nColumns=38
inDegrees=no

Units are S.I. units (second, meters, Newtons, ...)
If the header above contains a line with 'inDegrees', this indicates whether rotational values are in degrees (yes) or radians (no).

endheader
time	pelvis_tilt	pelvis_list	pelvis_rotation	pelvis_tx	pelvis_ty	pelvis_tz	hip_flexion_r	hip_adduction_r	hip_rotation_r	knee_angle_r	ankle_angle_r	subtalar_angle_r	mtp_angle_r	hip_flexion_l	hip_adduction_l	hip_rotation_l	knee_angle_l	ankle_angle_l	subtalar_angle_l	mtp_angle_l	lumbar_extension	lumbar_bending	lumbar_rotation	arm_flex_r	arm_add_r	arm_rot_r	elbow_flex_r	pro_sup_r	wrist_flex_r	wrist_dev_r	arm_flex_l	arm_add_l	arm_rot_l	elbow_flex_l	pro_sup_l	wrist_flex_l	wrist_dev_l
0	2.80847	1.35604	-1.09948	0.665158	-0.466069	0.947375	-0.0541729	0.0623236	-0.198767	0.323737	-0.142383	0	0	0.0955329	-0.216611	-0.0390475	1.55375	-0.00494321	0	0	-0.331909	0.0746097	-0.189265	0.138189	-0.445707	1.28225	0.620647	0.227674	0	0	-0.232281	-0.430712	0.0618195	0.95428	1.54645	0	0
0.01	2.83373	1.35204	-1.13435	0.666571	-0.455407	0.949289	-0.0794795	0.0638382	-0.194355	0.310908	-0.1405	0	0	0.117107	-0.213618	-0.0485986	1.55943	-0.00496482	0	0	-0.338691	0.0677212	-0.18222	0.143697	-0.44638	1.30041	0.622692	0.212092	0	0	-0.24347	-0.426457	0.0602319	0.954333	1.54816	0	0
0.02	2.858	1.34861	-1.16837	0.667966	-0.444823	0.951031	-0.105375	0.0636254	-0.189238	0.295318	-0.139315	0	0	0.136964	-0.207665	-0.0550805	1.55706	-0.00184291	0	0	-0.345547	0.060533	-0.174554	0.148534	-0.447269	1.31564	0.625225	0.198493	0	0	-0.253784	-0.422792	0.0597139	0.955436	1.54994	0	0
0.03	2.87921	1.34477	-1.20017	0.669336	-0.434235	0.952613	-0.13131	0.0631713	-0.185546	0.279912	-0.138718	0	0	0.154884	-0.20304	-0.0646352	1.54826	0.00242971	0	0	-0.352494	0.0535171	-0.165401	0.152585	-0.448722	1.3285	0.628144	0.186373	0	0	-0.263618	-0.419094	0.0593498	0.957734	1.55104	0	0
0.04	2.89738	1.3407	-1.2295	0.670653	-0.423688	0.954023	-0.15699	0.0624814	-0.183159	0.264854	-0.138548	0	0	0.17092	-0.199487	-0.0767091	1.53368	0.00606923	0	0	-0.35946	0.0467304	-0.155397	0.156289	-0.450955	1.33949	0.631673	0.175412	0	0	-0.273227	-0.415228	0.0585681	0.960728	1.55119	0	0
0.05	2.91244	1.33639	-1.25612	0.671902	-0.413192	0.955256	-0.182485	0.0616956	-0.181843	0.249993	-0.138625	0	0	0.18539	-0.197512	-0.0921491	1.51397	0.00561808	0	0	-0.366444	0.0403995	-0.145332	0.160139	-0.453873	1.34948	0.635793	0.166023	0	0	-0.282456	-0.410959	0.0573928	0.96365	1.55083	0	0
0.06	2.92501	1.33112	-1.28073	0.673104	-0.402729	0.956354	-0.206595	0.0606994	-0.179326	0.239406	-0.138019	0	0	0.197407	-0.197981	-0.11244	1.48954	0.00129891	0	0	-0.374254	0.0345794	-0.135025	0.164149	-0.45735	1.35828	0.640379	0.157746	0	0	-0.291548	-0.406134	0.0554004	0.967038	1.5505	0	0
0.07	2.91941	1.27022	-1.27879	0.673004	-0.392645	0.963777	-0.310977	0.0935981	-0.201682	0.210055	-0.131382	0	0	0.144464	-0.227341	-0.144408	1.44352	-0.0133858	0	0	-0.441405	0.0533276	-0.126733	0.180849	-0.468606	1.37549	0.654523	0.141439	0	0	-0.294456	-0.39821	0.0505047	0.973155	1.55102	0	0
0.08	2.92676	1.26009	-1.29834	0.674119	-0.382114	0.964573	-0.343019	0.0928651	-0.1971	0.192394	-0.135583	0	0	0.147191	-0.237819	-0.183494	1.41272	-0.0222393	0	0	-0.454136	0.048442	-0.117186	0.185738	-0.47591	1.38261	0.665453	0.132546	0	0	-0.306209	-0.392508	0.0439291	0.980714	1.55151	0	0
0.09	2.9329	1.24484	-1.31726	0.67524	-0.371383	0.965385	-0.381211	0.0928472	-0.190534	0.173331	-0.141167	0	0	0.140671	-0.261138	-0.245362	1.38025	-0.0383747	0	0	-0.471682	0.0443629	-0.107996	0.192109	-0.485465	1.3912	0.680458	0.123925	0	0	-0.320517	-0.386607	0.0344665	0.992007	1.55142	0	0
0.1	2.9386	1.23313	-1.33442	0.676163	-0.36089	0.965922	-0.413618	0.0910853	-0.183822	0.158715	-0.144332	0	0	0.134771	-0.276247	-0.298466	1.34205	-0.0504692	0	0	-0.485853	0.0396599	-0.100138	0.197853	-0.492428	1.39807	0.690739	0.118035	0	0	-0.331973	-0.380986	0.0274566	0.999727	1.5502	0	0
0.11	2.94239	1.22462	-1.34844	0.676971	-0.350699	0.966195	-0.440577	0.0889304	-0.175844	0.147787	-0.145665	0	0	0.13071	-0.282555	-0.339361	1.29763	-0.0597585	0	0	-0.497293	0.0351905	-0.0933441	0.203809	-0.497359	1.4046	0.697554	0.112733	0	0	-0.340383	-0.375114	0.0216989	1.00447	1.54713	0	0
0.12	2.94313	1.21911	-1.35868	0.677681	-0.340686	0.966144	-0.462494	0.0868126	-0.168945	0.139843	-0.145228	0	0	0.128534	-0.285776	-0.376419	1.24864	-0.0691073	0	0	-0.505693	0.0312932	-0.086971	0.209595	-0.500297	1.411	0.700795	0.108327	0	0	-0.346733	-0.369308	0.0174364	1.00661	1.54389	0	0
0.13	2.94132	1.21597	-1.36599	0.678278	-0.330795	0.965813	-0.480039	0.0844853	-0.163153	0.135153	-0.143034	0	0	0.127352	-0.28703	-0.411633	1.1954	-0.0789425	0	0	-0.511734	0.0278839	-0.0807487	0.215351	-0.501903	1.41778	0.701489	0.105082	0	0	-0.351106	-0.363572	0.0145652	1.00606	1.5411	0	0
0.14	2.93903	1.21316	-1.37154	0.67869	-0.320944	0.965374	-0.49455	0.0818955	-0.153805	0.137931	-0.135862	0	0	0.124707	-0.286281	-0.4458	1.13746	-0.0889077	0	0	-0.517409	0.024969	-0.0756827	0.220981	-0.502661	1.42425	0.700934	0.102177	0	0	-0.35406	-0.358804	0.0138137	1.00427	1.5391	0	0
0.15	2.92457	1.19996	-1.36279	0.679856	-0.312063	0.966996	-0.514269	0.0773811	-0.278029	0.138947	-0.169	0	0	0.110101	-0.291679	-0.475964	1.06855	-0.108617	0	0	-0.535523	0.0278615	-0.0685356	0.22947	-0.495819	1.43293	0.690215	0.0983588	0	0	-0.349133	-0.35747	0.0180967	0.99729	1.53574	0	0
0.16	2.92597	1.20036	-1.36556	0.679758	-0.301623	0.965787	-0.523599	0.0755207	-0.281735	0.137511	-0.16751	0	0	0.108809	-0.284261	-0.502153	1.00537	-0.112511	0	0	-0.53668	0.02579	-0.0699521	0.231868	-0.495298	1.43518	0.689619	0.0973226	0	0	-0.352494	-0.354985	0.0196156	0.99472	1.53375	0	0
0.17	2.9252	1.20369	-1.36706	0.679698	-0.291338	0.96424	-0.523599	0.0730783	-0.282044	0.138367	-0.162765	0	0	0.109345	-0.275246	-0.52706	0.938323	-0.121929	0	0	-0.534973	0.0234003	-0.0705219	0.234499	-0.493008	1.43855	0.686085	0.0962046	0	0	-0.35422	-0.353039	0.022965	0.990481	1.53189	0	0
0.18	2.92062	1.21081	-1.36323	0.679483	-0.280991	0.962251	-0.523599	0.0720837	-0.281954	0.139652	-0.151116	0	0	0.114578	-0.264612	-0.545179	0.870025	-0.134601	0	0	-0.528145	0.0220682	-0.0721188	0.237683	-0.487652	1.44761	0.677484	0.0918238	0	0	-0.354981	-0.352409	0.0294721	0.984316	1.53132	0	0
0.19	2.91169	1.21964	-1.35369	0.679064	-0.270676	0.959931	-0.523599	0.0730849	-0.281241	0.139741	-0.141558	0	0	0.122239	-0.253072	-0.555781	0.801226	-0.139691	0	0	-0.519832	0.0225302	-0.0740506	0.239521	-0.483586	1.45294	0.670813	0.0899741	0	0	-0.355306	-0.351022	0.0341384	0.978093	1.53697	0	0
0.2	2.89862	1.23066	-1.33909	0.678458	-0.26037	0.957308	-0.523599	0.0752647	-0.278237	0.138556	-0.132636	0	0	0.132601	-0.240388	-0.558567	0.731846	-0.14278	0	0	-0.509294	0.0244666	-0.0764715	0.240234	-0.47975	1.45513	0.664112	0.0894983	0	0	-0.354176	-0.349354	0.0392767	0.970666	1.54119	0	0
0.21	2.8813	1.2436	-1.31927	0.677606	-0.25003	0.954396	-0.523599	0.0781671	-0.273767	0.136577	-0.124945	0	0	0.145259	-0.226616	-0.553271	0.663089	-0.143307	0	0	-0.496449	0.02782	-0.0792187	0.239779	-0.476392	1.45459	0.657606	0.0899126	0	0	-0.351391	-0.347986	0.0466657	0.961858	1.5436	0	0
0.22	2.88489	1.28853	-1.32695	0.677914	-0.239414	0.946915	-0.490412	0.0377921	-0.279869	0.169931	-0.110474	0	0	0.192389	-0.197615	-0.541418	0.606274	-0.132214	0	0	-0.450018	0.0119618	-0.0818337	0.2335	-0.471533	1.45146	0.653483	0.0907287	0	0	-0.357358	-0.350962	0.0512777	0.95971	1.5457	0	0
0.23	2.86527	1.30295	-1.3037	0.67682	-0.228663	0.943532	-0.486874	0.0408332	-0.278052	0.170369	-0.0993183	0	0	0.204735	-0.182763	-0.526891	0.545128	-0.126695	0	0	-0.434448	0.0140956	-0.0859589	0.231357	-0.468614	1.45032	0.647988	0.0927428	0	0	-0.357011	-0.350239	0.0561244	0.953213	1.54829	0	0
